<svg height="512pt" viewBox="0 0 512.00171 512" width="512pt" xmlns="http://www.w3.org/2000/svg"><path d="m178.746094 413.507812-24.554688-55.714843-55.714844-24.554688s-111.066406 10.535157-87.753906 155.679688c1.015625 6.335937 6.007813 11.328125 12.34375 12.347656 145.148438 23.308594 155.679688-87.757813 155.679688-87.757813zm0 0" fill="#ffcd38"/><path d="m11.828125 473.457031c-1.113281-.179687-2.183594-.484375-3.210937-.875.515624 5.253907 1.195312 10.679688 2.105468 16.335938 1.015625 6.335937 6.007813 11.328125 12.34375 12.347656 145.148438 23.3125 155.679688-87.757813 155.679688-87.757813l-4.066406-9.226562c-13.804688 34.125-53.109376 86.800781-162.851563 69.175781zm0 0" fill="#e7b835"/><path d="m59.335938 452.648438c.347656-31.488282 7.699218-57.320313 21.710937-75.6875 12.679687-16.625 28.914063-25.027344 39.023437-28.9375l32.125 11.769531 11.765626 32.125c-3.910157 10.105469-12.3125 26.34375-28.9375 39.023437-18.367188 14.011719-44.199219 21.363282-75.6875 21.707032zm0 0" fill="#da5b65"/><path d="m136.222656 307.027344s-15.871094-1.957032-31.351562 2.136718c-10.6875 2.824219-14.210938 16.257813-6.394532 24.074219l80.269532 80.269531c7.816406 7.816407 21.25 4.296876 24.074218-6.394531 4.09375-15.480469 2.136719-31.347656 2.136719-31.347656l-21.269531-54.339844zm0 0" fill="#3c474d"/><path d="m261.113281 82.773438c-41.925781 17.199218-118.207031-3.980469-212.925781 70.082031l20.027344 53.097656 54.257812 21.1875 91.167969-24.8125 63.746094-130.101563zm0 0" fill="#d4d2d3"/><path d="m439.757812 234.597656-73.050781 7.574219-81.863281 147.339844 18.445312 51.515625 55.839844 22.769531c79.617188-101.820313 49.164063-182.339844 74.652344-221.773437zm0 0" fill="#d4d2d3"/><path d="m494.15625 32.128906c-1.691406-7.082031-7.21875-12.609375-14.296875-14.300781-31.976563-7.683594-123.089844-24.984375-163.4375 15.363281l-193.949219 193.949219 64.652344 97.722656 97.71875 64.648438 193.949219-193.949219c40.347656-40.347656 23.046875-131.457031 15.363281-163.433594zm0 0" fill="#efedee"/><path d="m465.253906 59.917969c-1.214844-6.707031-6.476562-11.972657-13.1875-13.183594-45.238281-8.1875-93.195312-7.871094-111.585937 10.519531l-13.203125 13.207032c-6.097656 6.09375-6.097656 15.980468 0 22.078124l92.167968 92.167969c6.097657 6.097657 15.984376 6.097657 22.078126 0l13.207031-13.203125c18.390625-18.386718 18.707031-66.347656 10.523437-111.585937zm0 0" fill="#49c3e0"/><path d="m284.84375 389.511719c-20.015625 20.015625-33.070312 33.070312-33.070312 33.070312l-162.371094-162.371093s13.054687-13.054688 33.070312-33.070313zm0 0" fill="#465059"/><path d="m122.472656 227.140625-33.070312 33.070313-54.855469-54.859376c-11.96875-11.964843-11.296875-31.625 1.566406-42.617187 4.054688-3.464844 8.082031-6.761719 12.074219-9.878906zm0 0" fill="#3c474d"/><path d="m306.632812 477.441406-54.859374-54.859375 33.070312-33.066406 74.285156 74.28125c-3.113281 3.996094-6.414062 8.023437-9.878906 12.078125-10.988281 12.859375-30.648438 13.535156-42.617188 1.566406zm0 0" fill="#3c474d"/><path d="m453.410156 39.363281c-18.980468-3.4375-37.6875-5.25-54.097656-5.25-30.707031 0-52.285156 6.003907-64.128906 17.847657l-13.203125 13.207031c-4.367188 4.363281-6.773438 10.167969-6.773438 16.339843 0 6.175782 2.40625 11.980469 6.773438 16.34375l92.167969 92.171876c4.367187 4.363281 10.167968 6.769531 16.34375 6.769531 6.171874 0 11.976562-2.40625 16.34375-6.769531l13.203124-13.207032c26.707032-26.707031 16.394532-97.242187 12.597657-118.226562-1.761719-9.738282-9.488281-17.464844-19.226563-19.226563zm-3.976562 126.847657-13.203125 13.203124c-1.535157 1.535157-3.570313 2.378907-5.738281 2.378907-2.167969 0-4.203126-.84375-5.734376-2.378907l-92.171874-92.167968c-1.53125-1.535156-2.375-3.570313-2.375-5.738282 0-2.164062.84375-4.203124 2.375-5.734374l13.207031-13.203126c8.675781-8.679687 27.683593-13.457031 53.519531-13.457031 15.53125 0 33.3125 1.730469 51.425781 5.011719 3.617188.652344 6.484375 3.523438 7.140625 7.136719 8.980469 49.640625 5.667969 90.835937-8.445312 104.949219zm0 0"/><path d="m361.410156 67.847656-6.53125 6.527344c-2.925781 2.929688-2.925781 7.675781 0 10.605469 1.464844 1.464843 3.386719 2.195312 5.304688 2.195312 1.917968 0 3.839844-.730469 5.304687-2.195312l6.527344-6.527344c2.929687-2.929687 2.929687-7.679687 0-10.605469-2.929687-2.929687-7.679687-2.929687-10.605469 0zm0 0"/><path d="m433.546875 139.984375-6.527344 6.527344c-2.929687 2.929687-2.929687 7.679687 0 10.609375 1.464844 1.464844 3.382813 2.195312 5.304688 2.195312 1.917969 0 3.839843-.730468 5.300781-2.195312l6.53125-6.527344c2.925781-2.929688 2.925781-7.679688 0-10.605469-2.929688-2.929687-7.679688-2.929687-10.609375-.003906zm0 0"/><path d="m405.105469 116.710938c-2.542969.167968-5.09375-.84375-7.035157-2.78125-1.9375-1.941407-2.953124-4.503907-2.785156-7.039063.277344-4.132813-2.847656-7.707031-6.980468-7.984375-4.140626-.269531-7.707032 2.847656-7.984376 6.980469-.460937 6.851562 2.144532 13.648437 7.144532 18.648437 4.621094 4.621094 10.777344 7.195313 17.09375 7.195313.515625 0 1.035156-.019531 1.554687-.050781 4.132813-.28125 7.257813-3.855469 6.976563-7.988282-.273438-4.132812-3.851563-7.261718-7.984375-6.980468zm0 0"/><path d="m501.457031 30.394531c-2.359375-9.882812-9.96875-17.488281-19.839843-19.847656-16.390626-3.9375-48.863282-10.546875-82.230469-10.546875-40.054688 0-69.75 9.386719-88.261719 27.898438l-39.070312 39.070312c-12.488282 12.453125-33.46875 14.574219-60.023438 17.261719-19.839844 2.007812-42.332031 4.285156-67.660156 11.160156-4 1.085937-6.359375 5.207031-5.273438 9.203125 1.085938 3.996094 5.207032 6.359375 9.203125 5.273438 24.136719-6.554688 45.976563-8.765626 65.242188-10.710938 10.894531-1.105469 20.945312-2.121094 30.105469-3.78125l-121.167969 121.167969-62.914063-62.914063c19.382813-14.371094 38.949219-25.5 59.601563-33.921875 3.835937-1.5625 5.675781-5.941406 4.113281-9.773437-1.566406-3.835938-5.945312-5.675782-9.777344-4.113282-24.351562 9.929688-47.222656 23.382813-69.9375 41.144532-3.988281 3.109375-8.132812 6.5-12.320312 10.078125-15.976563 13.644531-16.816406 38.804687-2 53.621093l88.765625 88.761719c-4.625.378907-9.839844 1.117188-15.050781 2.496094-11.148438 2.945313-18.164063 14.539063-15.722657 25.796875-14.703125 3.585938-41.777343 13.441406-62.027343 39.636719-22.859376 29.566406-30.222657 70.871093-21.890626 122.761719 1.539063 9.566406 8.996094 17.023437 18.5625 18.5625 13.660157 2.191406 26.703126 3.292968 38.988282 3.292968 7.027344 0 13.804687-.363281 20.308594-1.082031 4.117187-.457031 7.085937-4.164063 6.628906-8.28125-.457032-4.117187-4.167969-7.078125-8.28125-6.628906-16.527344 1.835937-35.121094 1.121093-55.265625-2.113281-3.15625-.507813-5.621094-2.96875-6.128907-6.128907-7.636718-47.539062-1.300781-84.902343 18.828126-111.054687 20.222656-26.273438 49.171874-33.652344 58.902343-35.449219l6.890625 6.890625c-8.871094 5.207031-19.023437 12.96875-27.664062 24.296875-15.058594 19.738281-22.878906 46.707031-23.246094 80.15625-.042969 4.128906 3.375 7.582031 7.5 7.582031h.082031c33.449219-.367187 60.417969-8.1875 80.15625-23.246094 11.328125-8.640624 19.089844-18.792968 24.296875-27.667968l6.898438 6.902344c-2.300782 12.601562-13.949219 57.390624-64.753906 74.207031-3.933594 1.300781-6.0625 5.542969-4.761719 9.476562 1.300781 3.933594 5.542969 6.0625 9.476562 4.765625 52.773438-17.46875 68.933594-61.089844 73.53125-79.859375 1.511719.328125 3.0625.511719 4.644531.511719 9.9375 0 18.644532-6.664062 21.167969-16.207031 1.363281-5.167969 2.113281-10.339844 2.5-15.046875 0 0 88.71875 88.71875 88.757813 88.757812 14.835937 14.835938 39.972656 13.972656 53.621094-2 3.574218-4.183594 6.964843-8.328125 10.082031-12.328125 52.476562-67.105469 58.402343-125.683593 62.730469-168.457031 2.6875-26.582031 4.8125-47.574219 17.292968-60.054688l39.039063-39.039062c18.816406-18.820312 28.203125-49.171875 27.890625-90.214844-.253906-32.730468-6.714844-64.34375-10.539063-80.265625zm-348.597656 367.832031c-4.339844 8.230469-11.382813 18.375-22.378906 26.757813-15.367188 11.726563-37.171875 18.558594-63.394531 19.929687 1.371093-26.226562 8.203124-48.027343 19.929687-63.394531 8.382813-10.996093 18.53125-18.039062 26.757813-22.378906zm42.71875 6.980469c-1.308594 4.949219-7.832031 6.695313-11.523437 3.007813l-80.269532-80.269532c-3.65625-3.65625-2.019531-10.191406 3.007813-11.523437 7.359375-1.945313 14.914062-2.351563 19.957031-2.351563 2.5 0 4.605469.097657 6.101562.199219l64.882813 64.882813c.320313 4.726562.621094 15.542968-2.15625 26.054687zm-162.058594-221.320312c.238281-6.042969 2.890625-11.527344 7.46875-15.441407 2.234375-1.90625 4.453125-3.757812 6.640625-5.539062l64.242188 64.246094-22.460938 22.460937-49.558594-49.554687c-4.320312-4.324219-6.570312-10.066406-6.332031-16.171875zm88.960938 53.871093 151.761719 151.765626-22.460938 22.460937-151.765625-151.765625zm221.074219 233.253907c-8.058594 9.433593-22.882813 9.867187-31.613282 1.136719l-49.554687-49.554688 22.460937-22.464844 64.246094 64.242188c-1.78125 2.1875-3.628906 4.40625-5.539062 6.640625zm69.292968-172.554688c-4.21875 41.695313-9.433594 93.226563-54.480468 153.976563l-62.910157-62.910156 121.167969-121.171876c-1.660156 9.164063-2.675781 19.210938-3.777344 30.105469zm60.648438-108.1875-188.644532 188.644531-151.765624-151.761718 188.644531-188.648438c8.253906-8.253906 19.648437-14.421875 33.875-18.335937 12.457031-3.429688 27.1875-5.167969 43.78125-5.167969 31.820312 0 62.980469 6.347656 78.734375 10.132812 4.355468 1.042969 7.707031 4.390626 8.75 8.757813 6.5 27.046875 24.746094 118.257813-13.375 156.378906zm0 0"/></svg>